<?xml version="1.0" encoding="iso-8859-1"?>
<!-- Generator: Adobe Illustrator 19.0.0, SVG Export Plug-In . SVG Version: 6.00 Build 0)  -->
<svg version="1.1" id="Layer_1" xmlns="http://www.w3.org/2000/svg" xmlns:xlink="http://www.w3.org/1999/xlink" x="0px" y="0px"
	 viewBox="0 0 512 512" style="enable-background:new 0 0 512 512;" xml:space="preserve">
<path style="fill:#FEE187;" d="M430.475,246.952l-42.253,42.253l-111.97,14.693l-29.045,29.045l88.938,8.339l-79.245,79.245
	l-24.259-14.3l-23.009,23.009l57.556,68.52L380.17,384.773l8.275,88.259l29.045-29.045l14.581-111.114l27.689-27.689l14.474-14.474
	c12.084-12.084,12.084-31.674,0-43.758C462.15,234.868,442.558,234.868,430.475,246.952z"/>
<path style="fill:#FFC61B;" d="M484.304,236.878c-4.094-4.094-8.842-7.296-14-9.53C469.999,101.936,367.881,0,242.397,0
	c-19.163,0-46.522,12.488-68.038,71.983c-7.473,20.662-13.282,44.623-17.256,70.638c-26.015,3.974-49.976,9.782-70.638,17.256
	c-15.249,5.514-27.391,11.414-37.045,17.46c8.826-33.91,26.529-65.004,51.962-90.437c5.564-5.563,5.564-14.582,0-20.145
	c-5.561-5.563-14.582-5.563-20.145,0c-43.047,43.047-66.755,100.283-66.755,161.16c0,55.382,20.106,108.774,56.614,150.341
	c36.167,41.18,85.84,67.964,139.866,75.423c0.214,0.03,0.557,0.033,0.758,0.188l44.56,53.05c2.568,3.057,6.3,4.897,10.29,5.07
	c0.207,0.009,0.413,0.013,0.618,0.013c3.769,0,7.394-1.496,10.072-4.172l91.555-91.555l5.446,58.09
	c0.516,5.496,4.159,10.199,9.352,12.071c5.194,1.872,11,0.574,14.903-3.328l29.045-29.045c2.218-2.219,3.642-5.108,4.051-8.219
	l13.951-106.318l38.741-38.741C501.922,283.163,501.924,254.497,484.304,236.878z M274.399,289.774
	c-0.366,0.048-0.728,0.113-1.087,0.188c-9.87,0.62-20.213,0.984-30.914,0.984c-21.421,0-41.405-1.105-59.813-3.067
	c-2.095-19.182-3.219-39.375-3.219-59.966c0-21.475,1.111-41.505,3.083-59.95c18.445-1.971,38.476-3.083,59.95-3.083
	s41.505,1.111,59.95,3.083c1.97,18.445,3.083,38.476,3.083,59.95c0,7.867,6.377,14.245,14.245,14.245s14.245-6.377,14.245-14.245
	c0-19.126-0.902-37.889-2.62-55.96c66.47,11.347,106.335,34.251,110.201,52.997c-7.919,1.944-15.185,6.013-21.099,11.926
	l-38.83,38.831L274.399,289.774z M222.57,396.152l-7.714,7.714c-12.265-20.27-22.068-50.943-28.234-87.029
	c17.441,1.652,35.529,2.531,53.962,2.585l-3.449,3.449c-3.903,3.903-5.199,9.711-3.328,14.903c1.872,5.194,6.575,8.837,12.071,9.352
	l58.769,5.51l-50.017,50.016l-14.753-8.698C234.28,390.655,227.162,391.561,222.57,396.152z M435.306,177.292
	c-9.642-6.03-21.764-11.914-36.975-17.416c-20.662-7.473-44.623-13.28-70.638-17.256c-3.974-26.015-9.782-49.976-17.255-70.638
	c-5.501-15.21-11.386-27.333-17.416-36.975C362.376,53.221,417.091,107.936,435.306,177.292z M242.397,28.489
	c19.232,0,44.008,40.51,55.96,110.523c-18.071-1.719-36.832-2.62-55.96-2.62s-37.889,0.902-55.96,2.62
	C198.391,69,223.166,28.489,242.397,28.489z M153.496,171.955c-1.719,18.071-2.62,36.833-2.62,55.96
	c0,19.163,0.922,37.936,2.664,55.967c-70.041-11.95-110.567-36.731-110.567-55.967C42.971,208.683,83.481,183.908,153.496,171.955z
	 M49.573,278.592c9.629,6.011,21.726,11.877,36.892,17.363c20.69,7.483,44.686,13.297,70.741,17.272
	c6.852,44.433,18.958,82.435,34.757,107.674C122.095,402.643,67.787,347.336,49.573,278.592z M464.16,280.636l-42.163,42.164
	c-2.218,2.218-3.642,5.107-4.051,8.219l-13.951,106.318l-4.197,4.197l-5.446-58.09c-0.516-5.496-4.159-10.199-9.352-12.071
	c-5.194-1.873-11.001-0.575-14.903,3.328L268.103,476.697l-39.162-46.623l5.974-5.974l14.753,8.698
	c5.594,3.299,12.712,2.393,17.306-2.198l79.245-79.245c3.903-3.903,5.199-9.711,3.328-14.903s-6.575-8.837-12.071-9.352
	l-58.769-5.51l3.704-3.704c22.524-1.715,45.268-4.833,67.265-9.255l40.402-5.302c3.111-0.409,6-1.832,8.219-4.051l42.251-42.253
	c3.154-3.154,7.347-4.89,11.807-4.89s8.654,1.736,11.806,4.89C470.669,263.534,470.669,274.126,464.16,280.636z"/>
<g>
</g>
<g>
</g>
<g>
</g>
<g>
</g>
<g>
</g>
<g>
</g>
<g>
</g>
<g>
</g>
<g>
</g>
<g>
</g>
<g>
</g>
<g>
</g>
<g>
</g>
<g>
</g>
<g>
</g>
</svg>
